<svg xmlns="http://www.w3.org/2000/svg" viewBox="0 0 1389.12 272.02"><defs><style>.cls-1,.cls-2,.cls-3{fill:#fff;stroke:#fff;stroke-miterlimit:10;}.cls-1{stroke-width:2px;}.cls-2{stroke-width:0.5px;}.cls-3{stroke-width:1.45px;}</style></defs><g id="Layer_2" data-name="Layer 2"><g id="Layer_1-2" data-name="Layer 1"><path class="cls-1" d="M73.61,188.1c-23.78,27.32-48,54.28-72.17,81.23,4,3.36,9.87-.7,13.44-4.54Q96.75,176.8,172,83c-19.14,40.87-38.42,82.15-48.15,126.22-2.74,12.41-4.68,25.59-.68,37.66,1.33,4,3.73,8.19,7.8,9.36,6.54,1.88,12.09-4.8,15.8-10.51C187.33,183.32,249,137.68,294.67,79c-.54,6.42-4.74,11.85-8.59,17a270.41,270.41,0,0,0-52.56,142.09c-.64,9.45-.23,20.28,7,26.44,6.05,5.18,15.25,5.18,22.59,2.09s13.24-8.74,19-14.27c3.6,10.19,14.38,16.62,25.14,17.57s21.45-2.69,31.08-7.59c4.86,10.2,20.26,9.51,29.63,3.2s16-16.3,25.91-21.7c-3.32,7.09,1.52,16.13,8.79,19s15.78.74,22.26-3.65,11.34-10.75,16.07-17c-3.42,10,7.38,20.46,18,20.36s19.77-7.31,26.94-15.11c-7.49-.3-13.9,5.08-21.09,7.17s-17.62-2.68-15.45-9.84c.92-3,3.88-5.09,4.9-8.1,1.77-5.2-3.57-10.65-8.77-8.73-4,1.5-7.73,5.8-10.36,9.13l-10,12.67-2.19,1.62c-2.77,2-5.17,4.92-8.68,5.64a11.16,11.16,0,0,1-10.1-3c-4.32-4.55-4.54-11.82-2.32-17.69,1.15-3,2.48-7.33-.39-8.89-2.56-1.4-5.37,1.25-7.16,3.55A126,126,0,0,1,362,260.33c-3,1.87-6.31,3.67-9.75,3.06-5-.88-7.74-6.5-7.93-11.56s1.35-10,1.26-15.1c-.2-10.8-8.82-20.86-19.47-22.69-14.44-2.48-27.48,8.57-37.11,19.61S269.4,257.39,255,259.94a11.06,11.06,0,0,1-6.95-.56c-4.13-2.1-5-7.56-5.15-12.2-1.55-43.91,12.91-87.27,34.8-125.37s51-71.52,80.87-103.73c3.16-3.41,5-10.74.37-11-1.44-.09-2.73.81-3.87,1.68-15.3,11.65-28.43,25.86-41.47,40Q223,146.87,132.45,245c-5.92-13.87-2.9-29.81,1.06-44.37,18.21-67,53.71-127.81,85.68-189.48,1.73-3.33,2.87-8.48-.58-9.94q-27.24,40.82-57,79.85C133.57,117.82,103.94,153.25,73.61,188.1ZM301.46,72.27c.62,1.67-.2,2-1.28,2.26C299.75,73.31,300.49,72.92,301.46,72.27ZM177.67,73.55c.16.15.45.3.45.45a2.8,2.8,0,0,1-.37.89c-.28-.33-.56-.53-.53-.65A2.4,2.4,0,0,1,177.67,73.55ZM15.32,262.82c-.18,0-.36-.16-.54-.25.13-.16.23-.39.4-.45s.36.1,1,.3C15.71,262.65,15.52,262.81,15.32,262.82ZM172.32,82c.47-1.41,1-1.64,1.75-1.24.16.09.22.76.19.77C173.75,81.73,173.22,81.84,172.32,82ZM154.8,227.52c-.22-1.44.72-2,2.12-3C156.8,226.46,155.38,226.64,154.8,227.52Zm4.16-4.47c-.05,0-.17-.2-.31-.38a2.83,2.83,0,0,1,.61-.22c.07,0,.17.2.25.31A2.89,2.89,0,0,1,159,223.05Zm142.71,37.31c-2.46-.83-4.87-1.56-6.82-3.38A9.68,9.68,0,0,1,292,251.9a4.46,4.46,0,0,1,.33-3,12.16,12.16,0,0,1,1.21-1.57c.84-1,1-2.27,1.67-3.35s1.83-1.75,2.58-2.74c1.21-1.62,2.41-3.23,3.7-4.79a36.3,36.3,0,0,1,8.83-8c4.05-2.48,17.81-10.09,20.47-3,1.16,3.11,4.64,6.67,3.3,10.18-.89,2.32-3.46,3.89-3.67,6.63-.14,2,.81,3.65,1.7,5.33A20.51,20.51,0,0,1,334,252.8a3.23,3.23,0,0,1,.07,1.38c-.8,3.3-6.4,5.4-9.24,6.26a42.67,42.67,0,0,1-13.55,1.95A34,34,0,0,1,301.67,260.36Z"/><path class="cls-1" d="M1030.06,135.11a269.33,269.33,0,0,0,77.43-33.77C1120.7,93,1133.54,83,1141,69.21c2.82-5.19,4.82-11.46,2.59-16.92-2-5-7.35-8.18-12.72-9s-10.84.35-16.07,1.82c-42.42,11.92-76.44,42.72-110,69.72q-9.22,7.41-18.44,14.85c-4.85,3.91-9.23,6.52-15.59,6.15a84.59,84.59,0,0,1-43.86-15.42,17.28,17.28,0,0,1-5.32-5.24c-1.49-2.62-1.67-5.78-1.48-8.79a40.09,40.09,0,0,1,8.28-21.8,5.25,5.25,0,0,0,1.19-2.1c.47-2.31-2.67-4-4.87-3.14s-3.48,3.09-4.59,5.17c-3.41,6.4-6.88,13-7.54,20.23-.75,8.17,2.84,16.34,8.66,22,4,3.86,9,6.49,14.1,8.55,2.57,1,5.2,1.92,7.85,2.74a70.86,70.86,0,0,0,9.23,2.64c2.25.36,4.54.32,6.8.62,1.59.2,4.7.62,5.89,1.81,1,1-.07,2.87-.63,3.77-1.24,2-3.92,3.21-5.75,4.64-13.33,10.43-26,21.54-38.88,32.55-11.3,9.7-22.85,19.18-35.31,27.38-10.1,6.63-21.11,11.73-31.48,17.92s-19.89,13.31-29.48,20.48l-15.72,11.73a6.54,6.54,0,0,0-2.38,2.58c-1,2.54,1.71,5.31,4.44,5.43s5.22-1.45,7.5-3l37-24.73c6.07-4,12.1-8.16,18.2-12.16,4.2-2.75,10.86-6.87,15.57-2.85,1.86,1.59,2.63,4.06,3.52,6.34,6.42,16.47,23.82,28,41.49,27.46,8.5-.25,16.7-3,24.76-5.72l16.6-5.6c2.35-1.5,5.22-2.6,7.88-1.8a4.28,4.28,0,0,1,3.09,3.1c.12.79.05,1.6.14,2.39a11.4,11.4,0,0,0,1.56,4c1.63,3,3.54,6.91,6.93,8.27a11.74,11.74,0,0,0,10.64-1.45c4-2.66,6.54-6.93,9-11.05-.87-1.9-3.64-.19-5,1.34a17.25,17.25,0,0,1-7.9,4.9,4,4,0,0,1-3.06,0c-1.26-.7-1.56-2.34-1.78-3.76-.86-5.58-3.17-11.6-8.29-14-4.76-2.21-10.34-.56-15.28,1.22-11.75,4.22-23.55,9.07-36,9.72s-26.07-3.82-32.6-14.46c-2.23-3.62-3.52-7.73-5.48-11.51s-4.83-7.38-8.87-8.7c-.15-.05,10.21-9.13,11-9.76,2.49-1.94,6.55-3.54,8.48-6,.43-.53.76-1.15,1.18-1.69a12,12,0,0,1,3.27-2.54c8.67-5.33,15.38-12.63,23.26-18.92L965.18,156c1.06-.84,2.31-1,3.61-2.2,1.49-1.35,3-2.7,4.53-4,3.36-2.76,7-6.63,11.4-6.3,1.9.14,3.5-1.19,5.27-1.64a53.94,53.94,0,0,1,7-.72c5.08-.55,10.15-1.27,15.18-2.16Q1021.15,137.4,1030.06,135.11Zm-61.94,9.15-.84-1.11.4-.31.84,1.1Zm54.69-14.41c-8.92,2.5-18.73,5-27.27,4.35.85-1.31,1.06-3.11,2-4.32,1.8-2.31,5.2-4.12,7.51-5.92,7.81-6.07,15.82-11.89,23-18.69,2.87-2.71,6.58-4.33,9.7-6.7,5.21-4,10.37-8,15.54-11.95,8.78-6.79,16.89-13.89,26.89-18.84,12.32-6.09,27-13.06,40.78-12.25,4.59.27,8.66-.92,13.13-1.32,2.68-.24,5.34.29,4.41,3.74-.41,1.54-1,3-1.44,4.55a29,29,0,0,1-3.64,6.86c-11.11,16.84-31.17,29.22-49.14,37.63l-3.54,1.66c-4.38,2-8.75,4.1-13.18,6a265.4,265.4,0,0,1-37,13C1028.08,128.35,1025.49,129.1,1022.81,129.85Z"/><path class="cls-1" d="M680.07,234.91c-.54-.88-2-1-3.1-1-22.56.92-45.61,2.66-67.33-3.48-3-.84-6-1.84-9.12-1.71a3.22,3.22,0,0,0-2.65,1.12c-.83,1.29.22,2.94,1.24,4.08a94.77,94.77,0,0,0,9,8.72c2,1.71,4.24,3.58,4.64,6.18s-1.3,5.25-3.17,7.23c-2.44,2.58-8.29,8.28-12.29,6.91a8.61,8.61,0,0,0-1.37-.49,1.12,1.12,0,0,0-1.24.51c1.61-3.6-1.49-6.74-4.42-8.35A11.58,11.58,0,0,0,585.7,253c-1.93-.13-3.49.1-5.32-.83-.21-.11-4.25,2.55-4.81,2.8a25.64,25.64,0,0,1-5.92,1.81,27,27,0,0,1-12.39-.88,8.8,8.8,0,0,1-4.89-2.94,7.74,7.74,0,0,1-1.26-3.63c-.49-3.87.53-7.76.71-11.65a4.78,4.78,0,0,0-1-3.76,3.54,3.54,0,0,0-3.77-.45,10.65,10.65,0,0,0-3.16,2.44q-10,10-19.93,20c2-7.7,4.11-15.62,3.21-23.53-.37-3.28-1.64-7-4.73-8.14-2.24-.85-4.76-.1-6.91.94-8.5,4.1-14.16,12.26-21,18.73-4.62,4.33-10.17,8.41-11.8,14.53,4-.62,7.13-3.68,10-6.53,7.51-7.4,15.45-14.44,24.3-20.17a2.16,2.16,0,0,1,1-.43c1-.05,1.52,1.23,1.62,2.25,1,10-5.7,19.33-6.14,29.39a9.94,9.94,0,0,0,.71,4.72,4.7,4.7,0,0,0,6,2.5c5.62-2.08,8.65-9.06,13.46-12.43,2-1.37,3.72-2.39,4.79-4.59.59-1.21,2.39-5.44,3.76-2.51,1.74,3.72,3.59,7.6,6.85,10.09,4.32,3.29,10.17,3.49,15.6,3.55a14.76,14.76,0,0,0,4.15-.34c.79-.22,1.54-.57,2.34-.73,3.58-.73,7.26-1.79,10.92-2.25s3.8,2.31,5.06,4.86a9.47,9.47,0,0,0,9.05,5.22c8.73-.39,16.65-9.24,20.52-16.35a8.5,8.5,0,0,0,1.36-5.08c-.22-1.57-1.2-2.92-1.76-4.4s-.57-3.44.74-4.34,3.07-.22,4.57.33c8.6,3.16,18.11.83,27.26.36,6.23-.32,12.62.23,18.59-1.61,2.7-.84,5.33-2.16,8.16-2.2a11,11,0,0,0,3-.16,2.08,2.08,0,0,0,1.59-2.22A1.5,1.5,0,0,0,680.07,234.91Z"/><path class="cls-1" d="M1148.6,247.48a9.55,9.55,0,0,1-3.21.27c-1.65-.36-2.53-2.16-2.87-3.81s-.41-3.44-1.4-4.8a5.66,5.66,0,0,0-5.51-1.89,16.88,16.88,0,0,0-5.6,2.39l-8.93,5.2c-2.86,1.66-5.88,3.37-9.19,3.4a4.84,4.84,0,0,1-3.23-1,6,6,0,0,1-1.55-3.29,50.42,50.42,0,0,1-1-15.3c.4-4.88-2.79-6.5-7-4.26-8.39,4.54-14.67,11.48-23.11,15.77-1,.54-1.63.05-1.64-1.15a4,4,0,0,1,.11-1.19c.64-2.36,1.41-4.69,1.94-7.07.35-1.58,1-3.45.47-4.82a8.92,8.92,0,0,0-10.09-6.09,23.27,23.27,0,0,0-8,3,69.22,69.22,0,0,0-18.41,14c-3.2,3.48-6,7.4-9.91,10.11a9.84,9.84,0,0,0-3.19,2.81,5.62,5.62,0,0,0,.49,5.53,5.34,5.34,0,0,0,4.23,2.83c1.77,0,3.52-1.76,3-3.45-.19-.59-.61-1.1-.77-1.7-.4-1.48.85-2.86,2-3.9l5.79-5.25c2.58-2.35,5-4.74,8-6.48a43.63,43.63,0,0,0,5.71-4c1.08-.88,2-2,3.06-2.81,1.25-1,1.87-.83,3.34-1,2.08-.19,3.53-4.2,5.61-1.4.85,1.15.47,2.9.13,4.17a62.91,62.91,0,0,1-3,9.23c-.82,1.85-1.84,3.73-1.79,5.76a5.84,5.84,0,0,0,2.69,4.71c3.73,2.31,10.71-1.86,13.64-4.18l17.06-13.53c2.19,3.29,1.15,7.69,1.85,11.59a13.09,13.09,0,0,0,9.56,10.16c4.52,1.1,9.32-.35,13.38-2.61s7.65-5.31,11.59-7.78a1.39,1.39,0,0,1,.9-.29c.56.09.76.78.9,1.33a9.48,9.48,0,0,0,15.19,5.07c1.11-.9,2-2.57,1.14-3.69A2.35,2.35,0,0,0,1148.6,247.48Z"/><path class="cls-2" d="M1278.18,228.37c-2.46,1.76-2.56,2.31-5.52,3.21a30.87,30.87,0,0,0-7.37,3.81c-10.63,6.72-22,12.45-34,16-5.08,1.51-10.44,2.65-15.67,1.76-3-.5-6.3-2.2-6.69-5.21a8.63,8.63,0,0,1,.47-3.4c.93-3.36,1.92-6.84,4.24-9.44a22.92,22.92,0,0,1,4.36-3.53,80.43,80.43,0,0,1,11.67-7c13-5.94,27.58-3.94,39.8,2.82a10.55,10.55,0,0,0,3.7,1.52,3.23,3.23,0,0,0,3.39-1.62c.88-2.1-1.46-4.05-3.47-5.13l1.43-2c-2.59-.38-4.75-2.09-7-3.48-20.63-12.89-53.17-.5-65.53,18.69a22.83,22.83,0,0,0-3,15.87c1.46,7,10.71,10.3,17.07,11.13a28.54,28.54,0,0,0,15.35-2.18c3.4-1.63,7.3-2.18,10.8-3.73,5-2.23,9.12-5.83,14-8.25a115.58,115.58,0,0,0,24.51-16.31,7.71,7.71,0,0,0-.51-4.57A8.15,8.15,0,0,0,1278.18,228.37Z"/><path class="cls-1" d="M1383.9,142.32c-4.19.15-10.22,2.14-12.3,2.76-14.77,4.42-28.69,10.32-42.71,16.06l-4,1.65c-13.08,5.28-26.54,10.29-38.19,17.41-4.27,2.62-8.37,5.42-12.43,8.22-1.94,1.34-3.68,3.07-3.82,5s2,3.77,4.5,3.35,3.8-2.27,5.3-3.59a50.32,50.32,0,0,1,5.92-4.58c6.43-4.17,14.41-6.41,21.47-9.77,6.66-3.16,13.06-6.61,19.78-9.69s13.48-5.81,20.35-8.52c9.83-3.87,19.75-7.65,29.25-12a32.2,32.2,0,0,1,8.46-3,5.94,5.94,0,0,0,2.14-.57c1-.61.44-1.52-.26-2A6,6,0,0,0,1383.9,142.32Z"/><path class="cls-3" d="M1192,193.15s0,0,0-.05a.45.45,0,0,0,0-.25l-.46-1c-.19-.45.67-.26.91-.4s.28-.16.22-.59a4.61,4.61,0,0,0-.88-1.87,3.92,3.92,0,0,0-2.12-1.52c-1.32-.35-2.67.13-4,.11s-2.57-.84-3.9-1.15c-1.78-.43-4.78-.36-6.33.75a8,8,0,0,0-1.49,1.64,10.37,10.37,0,0,0-2.34,3.53,4.8,4.8,0,0,0,.35,3.18,8.72,8.72,0,0,0,1.94,2.61c1,.93,2.13,1.75,3.53,1.38a1.67,1.67,0,0,0,1.28-1.16c.18-.91-.6-1.71-.12-2.64s1.61-1.14,2.49-1.49l3.44-1.39a5.81,5.81,0,0,1,2.93-.6,8.36,8.36,0,0,1,2.11.86,2.93,2.93,0,0,0,2.21.3A.46.46,0,0,0,1192,193.15Z"/><path class="cls-1" d="M1035.59,210c1.76-1,1.56-2.42,1.23-3.85-.4-1.74-.84-3.47-1.25-5.15H1044a3.5,3.5,0,0,0-.34-3.11c-3.19-5.58-2.58-4.89-8.3-5.86a16.13,16.13,0,0,1-2.64-.92c-1.17.8-2.53,1.59-3.75,2.57a17.46,17.46,0,0,0-2.84,2.86c-.26.34-.08,1.2.15,1.71.41,1,1.15,1.75,1.51,2.71A15.73,15.73,0,0,0,1035.59,210Z"/><path class="cls-1" d="M472,203.25c1.11,1.89,3.24,2.41,5.07,3.33a2.77,2.77,0,0,0,3.25-.11c1-1,.32-1.94,0-2.87-.25-.63-.79-1.16-1-1.8-.33-1-.5-2.08-.74-3.14,1.83-1.59,2.17-1.66,4-.88l.65.25c1.42.46,2.14,0,3.27-1.77h0l.05,0a4.12,4.12,0,0,1,.08-1.54,1.89,1.89,0,0,0-.3-2.19c-1.43-.34-2.86-.31-3.79-1-1.87-1.36-3.58-1.93-5.68-.66-1.83,1.11-3.8,2-5.53,3.21-1.15.81-2.35,2.14-1.92,3.59A25.3,25.3,0,0,0,472,203.25Z"/></g></g></svg>